<svg viewBox="0 0 32 32" id="icons" xmlns="http://www.w3.org/2000/svg" fill="#000000"><g id="SVGRepo_bgCarrier" stroke-width="0"></g><g id="SVGRepo_tracerCarrier" stroke-linecap="round" stroke-linejoin="round"></g><g id="SVGRepo_iconCarrier"><defs><style>.cls-1{fill:#ff5019;}.cls-2{fill:#ff774c;}.cls-3{fill:#ff8b66;}.cls-4{fill:#ffd28f;}</style></defs><title>Tomato</title><circle class="cls-1" cx="16" cy="16" r="15"></circle><circle class="cls-2" cx="16" cy="16" r="12.19"></circle><path class="cls-3" d="M17.72,17.72c-.12,3.83-3.33,3.83-3.45,0-3.83-.12-3.83-3.33,0-3.45.12-3.83,3.33-3.83,3.45,0C21.56,14.4,21.56,17.6,17.72,17.72Z"></path><polygon class="cls-1" points="26.41 7.01 24.99 5.59 16 14.59 7.01 5.59 5.59 7.01 14.59 16 5.59 24.99 7.01 26.41 16 17.41 24.99 26.41 26.41 24.99 17.41 16 26.41 7.01"></polygon><path class="cls-4" d="M16,7.62a.5.5,0,0,1-.5-.5V5.5a.5.5,0,0,1,1,0V7.12A.5.5,0,0,1,16,7.62Z"></path><path class="cls-4" d="M18.76,9a.5.5,0,0,1-.42-.77l.74-1.14a.5.5,0,0,1,.84.54l-.74,1.14A.5.5,0,0,1,18.76,9Z"></path><path class="cls-4" d="M13.24,9a.5.5,0,0,1-.42-.23l-.74-1.14a.5.5,0,0,1,.84-.54l.74,1.14a.5.5,0,0,1-.42.77Z"></path><path class="cls-4" d="M16,27a.5.5,0,0,1-.5-.5V24.88a.5.5,0,0,1,1,0V26.5A.5.5,0,0,1,16,27Z"></path><path class="cls-4" d="M19.5,25.14a.5.5,0,0,1-.42-.23l-.74-1.14a.5.5,0,1,1,.84-.54l.74,1.14a.5.5,0,0,1-.42.77Z"></path><path class="cls-4" d="M12.5,25.14a.5.5,0,0,1-.42-.77l.74-1.14a.5.5,0,1,1,.84.54l-.74,1.14A.5.5,0,0,1,12.5,25.14Z"></path><path class="cls-4" d="M7.12,16.5H5.5a.5.5,0,0,1,0-1H7.12a.5.5,0,1,1,0,1Z"></path><path class="cls-4" d="M8.5,13.74a.5.5,0,0,1-.27-.08l-1.14-.74a.5.5,0,0,1,.54-.84l1.14.74a.5.5,0,0,1-.27.92Z"></path><path class="cls-4" d="M7.36,20a.5.5,0,0,1-.27-.92l1.14-.74a.5.5,0,1,1,.54.84l-1.14.74A.5.5,0,0,1,7.36,20Z"></path><path class="cls-4" d="M26.5,16.5H24.88a.5.5,0,0,1,0-1H26.5a.5.5,0,0,1,0,1Z"></path><path class="cls-4" d="M23.5,13.74a.5.5,0,0,1-.27-.92l1.14-.74a.5.5,0,1,1,.54.84l-1.14.74A.5.5,0,0,1,23.5,13.74Z"></path><path class="cls-4" d="M24.64,20a.5.5,0,0,1-.27-.08l-1.14-.74a.5.5,0,1,1,.54-.84l1.14.74a.5.5,0,0,1-.27.92Z"></path></g></svg>